<mxfile host="app.diagrams.net" agent="Mozilla/5.0 (Windows NT 10.0; Win64; x64) AppleWebKit/537.36 (KHTML, like Gecko) Chrome/133.0.0.0 Safari/537.36" version="26.0.16">
  <diagram id="e-E8g2_dZzNfPV3UJqO3" name="Page-1">
    <mxGraphModel dx="541" dy="291" grid="1" gridSize="10" guides="1" tooltips="1" connect="1" arrows="1" fold="1" page="1" pageScale="1" pageWidth="827" pageHeight="1169" math="0" shadow="0">
      <root>
        <mxCell id="0" />
        <mxCell id="1" parent="0" />
        <mxCell id="BE5UIOhBAkyQ7ElNRn9m-1" value="" style="rounded=1;whiteSpace=wrap;html=1;" vertex="1" parent="1">
          <mxGeometry x="120" y="80" width="520" height="280" as="geometry" />
        </mxCell>
        <mxCell id="BE5UIOhBAkyQ7ElNRn9m-23" style="edgeStyle=orthogonalEdgeStyle;rounded=0;orthogonalLoop=1;jettySize=auto;html=1;entryX=0.5;entryY=1;entryDx=0;entryDy=0;" edge="1" parent="1" source="BE5UIOhBAkyQ7ElNRn9m-2" target="BE5UIOhBAkyQ7ElNRn9m-21">
          <mxGeometry relative="1" as="geometry" />
        </mxCell>
        <mxCell id="BE5UIOhBAkyQ7ElNRn9m-2" value="&lt;span style=&quot;color: rgb(38, 38, 38); font-family: KaTeX_Math; font-size: 19.36px; font-style: italic; letter-spacing: 0.01px; text-wrap-mode: nowrap; background-color: rgb(255, 255, 255);&quot;&gt;σ&lt;/span&gt;" style="rounded=0;whiteSpace=wrap;html=1;" vertex="1" parent="1">
          <mxGeometry x="260" y="300" width="60" height="40" as="geometry" />
        </mxCell>
        <mxCell id="BE5UIOhBAkyQ7ElNRn9m-25" style="edgeStyle=orthogonalEdgeStyle;rounded=0;orthogonalLoop=1;jettySize=auto;html=1;entryX=0;entryY=0.5;entryDx=0;entryDy=0;" edge="1" parent="1" source="BE5UIOhBAkyQ7ElNRn9m-3" target="BE5UIOhBAkyQ7ElNRn9m-21">
          <mxGeometry relative="1" as="geometry" />
        </mxCell>
        <mxCell id="BE5UIOhBAkyQ7ElNRn9m-3" value="&lt;font face=&quot;KaTeX_Math&quot; color=&quot;#262626&quot;&gt;&lt;span style=&quot;font-size: 19.36px; letter-spacing: 0.01px; text-wrap-mode: nowrap; background-color: rgb(255, 255, 255);&quot;&gt;&lt;i&gt;tanh&lt;/i&gt;&lt;/span&gt;&lt;/font&gt;" style="rounded=0;whiteSpace=wrap;html=1;" vertex="1" parent="1">
          <mxGeometry x="170" y="240" width="60" height="40" as="geometry" />
        </mxCell>
        <mxCell id="BE5UIOhBAkyQ7ElNRn9m-44" style="edgeStyle=orthogonalEdgeStyle;rounded=0;orthogonalLoop=1;jettySize=auto;html=1;" edge="1" parent="1" source="BE5UIOhBAkyQ7ElNRn9m-4">
          <mxGeometry relative="1" as="geometry">
            <mxPoint x="529.9999999999998" y="269.9999999999999" as="targetPoint" />
          </mxGeometry>
        </mxCell>
        <mxCell id="BE5UIOhBAkyQ7ElNRn9m-4" value="&lt;span style=&quot;color: rgb(38, 38, 38); font-family: KaTeX_Math; font-size: 19.36px; font-style: italic; letter-spacing: 0.01px; text-wrap-mode: nowrap; background-color: rgb(255, 255, 255);&quot;&gt;σ&lt;/span&gt;" style="rounded=0;whiteSpace=wrap;html=1;" vertex="1" parent="1">
          <mxGeometry x="500" y="300" width="60" height="40" as="geometry" />
        </mxCell>
        <mxCell id="BE5UIOhBAkyQ7ElNRn9m-24" style="edgeStyle=orthogonalEdgeStyle;rounded=0;orthogonalLoop=1;jettySize=auto;html=1;entryX=0.5;entryY=0;entryDx=0;entryDy=0;" edge="1" parent="1" source="BE5UIOhBAkyQ7ElNRn9m-5" target="BE5UIOhBAkyQ7ElNRn9m-7">
          <mxGeometry relative="1" as="geometry" />
        </mxCell>
        <mxCell id="BE5UIOhBAkyQ7ElNRn9m-5" value="&lt;span style=&quot;color: rgb(38, 38, 38); font-family: KaTeX_Math; font-size: 19.36px; font-style: italic; letter-spacing: 0.01px; text-wrap-mode: nowrap; background-color: rgb(255, 255, 255);&quot;&gt;σ&lt;/span&gt;" style="rounded=0;whiteSpace=wrap;html=1;" vertex="1" parent="1">
          <mxGeometry x="260" y="90" width="60" height="40" as="geometry" />
        </mxCell>
        <mxCell id="BE5UIOhBAkyQ7ElNRn9m-43" style="edgeStyle=orthogonalEdgeStyle;rounded=0;orthogonalLoop=1;jettySize=auto;html=1;entryX=0;entryY=0.5;entryDx=0;entryDy=0;" edge="1" parent="1" source="BE5UIOhBAkyQ7ElNRn9m-6" target="BE5UIOhBAkyQ7ElNRn9m-41">
          <mxGeometry relative="1" as="geometry" />
        </mxCell>
        <mxCell id="BE5UIOhBAkyQ7ElNRn9m-6" value="&lt;font face=&quot;KaTeX_Math&quot; color=&quot;#262626&quot;&gt;&lt;span style=&quot;font-size: 19.36px; letter-spacing: 0.01px; text-wrap-mode: nowrap; background-color: rgb(255, 255, 255);&quot;&gt;&lt;i&gt;tanh&lt;/i&gt;&lt;/span&gt;&lt;/font&gt;" style="rounded=0;whiteSpace=wrap;html=1;" vertex="1" parent="1">
          <mxGeometry x="420" y="240" width="60" height="40" as="geometry" />
        </mxCell>
        <mxCell id="BE5UIOhBAkyQ7ElNRn9m-13" value="" style="group" vertex="1" connectable="0" parent="1">
          <mxGeometry x="280" y="150" width="20" height="20" as="geometry" />
        </mxCell>
        <mxCell id="BE5UIOhBAkyQ7ElNRn9m-7" value="" style="ellipse;whiteSpace=wrap;html=1;aspect=fixed;" vertex="1" parent="BE5UIOhBAkyQ7ElNRn9m-13">
          <mxGeometry width="20" height="20" as="geometry" />
        </mxCell>
        <mxCell id="BE5UIOhBAkyQ7ElNRn9m-9" value="" style="ellipse;whiteSpace=wrap;html=1;aspect=fixed;fillColor=#000000;" vertex="1" parent="BE5UIOhBAkyQ7ElNRn9m-13">
          <mxGeometry x="8" y="8" width="4" height="4" as="geometry" />
        </mxCell>
        <mxCell id="BE5UIOhBAkyQ7ElNRn9m-20" value="" style="group" vertex="1" connectable="0" parent="1">
          <mxGeometry x="280" y="250" width="20" height="20" as="geometry" />
        </mxCell>
        <mxCell id="BE5UIOhBAkyQ7ElNRn9m-21" value="" style="ellipse;whiteSpace=wrap;html=1;aspect=fixed;" vertex="1" parent="BE5UIOhBAkyQ7ElNRn9m-20">
          <mxGeometry width="20" height="20" as="geometry" />
        </mxCell>
        <mxCell id="BE5UIOhBAkyQ7ElNRn9m-22" value="" style="ellipse;whiteSpace=wrap;html=1;aspect=fixed;fillColor=#000000;" vertex="1" parent="BE5UIOhBAkyQ7ElNRn9m-20">
          <mxGeometry x="8" y="8" width="4" height="4" as="geometry" />
        </mxCell>
        <mxCell id="BE5UIOhBAkyQ7ElNRn9m-29" value="" style="group" vertex="1" connectable="0" parent="1">
          <mxGeometry x="380" y="150" width="20" height="20" as="geometry" />
        </mxCell>
        <mxCell id="BE5UIOhBAkyQ7ElNRn9m-10" value="" style="ellipse;whiteSpace=wrap;html=1;aspect=fixed;" vertex="1" parent="BE5UIOhBAkyQ7ElNRn9m-29">
          <mxGeometry width="20" height="20" as="geometry" />
        </mxCell>
        <mxCell id="BE5UIOhBAkyQ7ElNRn9m-12" value="" style="shape=cross;whiteSpace=wrap;html=1;size=0;" vertex="1" parent="BE5UIOhBAkyQ7ElNRn9m-29">
          <mxGeometry x="5" y="5" width="10" height="10" as="geometry" />
        </mxCell>
        <mxCell id="BE5UIOhBAkyQ7ElNRn9m-33" style="edgeStyle=orthogonalEdgeStyle;rounded=0;orthogonalLoop=1;jettySize=auto;html=1;exitX=1;exitY=0;exitDx=0;exitDy=0;entryX=0;entryY=1;entryDx=0;entryDy=0;" edge="1" parent="1" source="BE5UIOhBAkyQ7ElNRn9m-21" target="BE5UIOhBAkyQ7ElNRn9m-10">
          <mxGeometry relative="1" as="geometry">
            <Array as="points">
              <mxPoint x="340" y="253" />
              <mxPoint x="340" y="190" />
              <mxPoint x="380" y="190" />
              <mxPoint x="380" y="167" />
            </Array>
          </mxGeometry>
        </mxCell>
        <mxCell id="BE5UIOhBAkyQ7ElNRn9m-34" style="edgeStyle=orthogonalEdgeStyle;rounded=0;orthogonalLoop=1;jettySize=auto;html=1;entryX=0.5;entryY=0;entryDx=0;entryDy=0;" edge="1" parent="1" target="BE5UIOhBAkyQ7ElNRn9m-6">
          <mxGeometry relative="1" as="geometry">
            <mxPoint x="390" y="170" as="sourcePoint" />
            <Array as="points">
              <mxPoint x="390" y="190" />
              <mxPoint x="450" y="190" />
            </Array>
          </mxGeometry>
        </mxCell>
        <mxCell id="BE5UIOhBAkyQ7ElNRn9m-35" style="edgeStyle=orthogonalEdgeStyle;rounded=0;orthogonalLoop=1;jettySize=auto;html=1;exitX=1;exitY=0.5;exitDx=0;exitDy=0;entryX=0;entryY=0.5;entryDx=0;entryDy=0;" edge="1" parent="1" source="BE5UIOhBAkyQ7ElNRn9m-7" target="BE5UIOhBAkyQ7ElNRn9m-10">
          <mxGeometry relative="1" as="geometry" />
        </mxCell>
        <mxCell id="BE5UIOhBAkyQ7ElNRn9m-40" value="" style="group" vertex="1" connectable="0" parent="1">
          <mxGeometry x="520" y="250" width="20" height="20" as="geometry" />
        </mxCell>
        <mxCell id="BE5UIOhBAkyQ7ElNRn9m-41" value="" style="ellipse;whiteSpace=wrap;html=1;aspect=fixed;" vertex="1" parent="BE5UIOhBAkyQ7ElNRn9m-40">
          <mxGeometry width="20" height="20" as="geometry" />
        </mxCell>
        <mxCell id="BE5UIOhBAkyQ7ElNRn9m-42" value="" style="ellipse;whiteSpace=wrap;html=1;aspect=fixed;fillColor=#000000;" vertex="1" parent="BE5UIOhBAkyQ7ElNRn9m-40">
          <mxGeometry x="8" y="8" width="4" height="4" as="geometry" />
        </mxCell>
        <mxCell id="BE5UIOhBAkyQ7ElNRn9m-46" value="" style="endArrow=classic;html=1;rounded=0;" edge="1" parent="1">
          <mxGeometry width="50" height="50" relative="1" as="geometry">
            <mxPoint x="260" y="390" as="sourcePoint" />
            <mxPoint x="290" y="340" as="targetPoint" />
          </mxGeometry>
        </mxCell>
        <mxCell id="BE5UIOhBAkyQ7ElNRn9m-47" value="" style="endArrow=classic;html=1;rounded=0;" edge="1" parent="1">
          <mxGeometry width="50" height="50" relative="1" as="geometry">
            <mxPoint x="330" y="390" as="sourcePoint" />
            <mxPoint x="290" y="340" as="targetPoint" />
          </mxGeometry>
        </mxCell>
        <mxCell id="BE5UIOhBAkyQ7ElNRn9m-49" value="" style="endArrow=classic;html=1;rounded=0;exitX=1;exitY=0.5;exitDx=0;exitDy=0;" edge="1" parent="1">
          <mxGeometry width="50" height="50" relative="1" as="geometry">
            <mxPoint x="400.0000000000001" y="159.81000000000006" as="sourcePoint" />
            <mxPoint x="720" y="160" as="targetPoint" />
          </mxGeometry>
        </mxCell>
        <mxCell id="BE5UIOhBAkyQ7ElNRn9m-59" value="&lt;b&gt;c&lt;/b&gt;&lt;sub style=&quot;&quot;&gt;t&lt;/sub&gt;" style="edgeLabel;html=1;align=center;verticalAlign=middle;resizable=0;points=[];" vertex="1" connectable="0" parent="BE5UIOhBAkyQ7ElNRn9m-49">
          <mxGeometry x="0.0017" relative="1" as="geometry">
            <mxPoint x="6" y="-10" as="offset" />
          </mxGeometry>
        </mxCell>
        <mxCell id="BE5UIOhBAkyQ7ElNRn9m-50" value="&lt;b&gt;c&lt;/b&gt;&lt;sub&gt;t-1&lt;/sub&gt;" style="endArrow=classic;html=1;rounded=0;" edge="1" parent="1">
          <mxGeometry x="0.0478" y="10" width="50" height="50" relative="1" as="geometry">
            <mxPoint x="100" y="160" as="sourcePoint" />
            <mxPoint x="280" y="159.81" as="targetPoint" />
            <mxPoint as="offset" />
          </mxGeometry>
        </mxCell>
        <mxCell id="BE5UIOhBAkyQ7ElNRn9m-51" value="" style="endArrow=classic;html=1;rounded=0;" edge="1" parent="1">
          <mxGeometry width="50" height="50" relative="1" as="geometry">
            <mxPoint x="500" y="390" as="sourcePoint" />
            <mxPoint x="530" y="340" as="targetPoint" />
          </mxGeometry>
        </mxCell>
        <mxCell id="BE5UIOhBAkyQ7ElNRn9m-52" value="" style="endArrow=classic;html=1;rounded=0;" edge="1" parent="1">
          <mxGeometry width="50" height="50" relative="1" as="geometry">
            <mxPoint x="570" y="390" as="sourcePoint" />
            <mxPoint x="530" y="340" as="targetPoint" />
          </mxGeometry>
        </mxCell>
        <mxCell id="BE5UIOhBAkyQ7ElNRn9m-55" value="" style="group;rotation=90;" vertex="1" connectable="0" parent="1">
          <mxGeometry x="110" y="240" width="105" height="50" as="geometry" />
        </mxCell>
        <mxCell id="BE5UIOhBAkyQ7ElNRn9m-53" value="" style="endArrow=classic;html=1;rounded=0;" edge="1" parent="BE5UIOhBAkyQ7ElNRn9m-55">
          <mxGeometry width="50" height="50" relative="1" as="geometry">
            <mxPoint x="10" y="-10" as="sourcePoint" />
            <mxPoint x="60" y="20" as="targetPoint" />
          </mxGeometry>
        </mxCell>
        <mxCell id="BE5UIOhBAkyQ7ElNRn9m-54" value="" style="endArrow=classic;html=1;rounded=0;" edge="1" parent="BE5UIOhBAkyQ7ElNRn9m-55">
          <mxGeometry width="50" height="50" relative="1" as="geometry">
            <mxPoint x="10" y="60" as="sourcePoint" />
            <mxPoint x="60" y="20" as="targetPoint" />
          </mxGeometry>
        </mxCell>
        <mxCell id="BE5UIOhBAkyQ7ElNRn9m-56" value="" style="group;rotation=-180;" vertex="1" connectable="0" parent="1">
          <mxGeometry x="250" y="40" width="70" height="50" as="geometry" />
        </mxCell>
        <mxCell id="BE5UIOhBAkyQ7ElNRn9m-57" value="" style="endArrow=classic;html=1;rounded=0;" edge="1" parent="BE5UIOhBAkyQ7ElNRn9m-56">
          <mxGeometry width="50" height="50" relative="1" as="geometry">
            <mxPoint x="70" as="sourcePoint" />
            <mxPoint x="40" y="50" as="targetPoint" />
          </mxGeometry>
        </mxCell>
        <mxCell id="BE5UIOhBAkyQ7ElNRn9m-58" value="" style="endArrow=classic;html=1;rounded=0;" edge="1" parent="BE5UIOhBAkyQ7ElNRn9m-56">
          <mxGeometry width="50" height="50" relative="1" as="geometry">
            <mxPoint as="sourcePoint" />
            <mxPoint x="40" y="50" as="targetPoint" />
          </mxGeometry>
        </mxCell>
        <mxCell id="BE5UIOhBAkyQ7ElNRn9m-63" value="" style="group" vertex="1" connectable="0" parent="1">
          <mxGeometry x="230" y="380" width="140" height="30" as="geometry" />
        </mxCell>
        <mxCell id="BE5UIOhBAkyQ7ElNRn9m-61" value="&lt;b&gt;x&lt;/b&gt;&lt;span style=&quot;font-size: 10px;&quot;&gt;&lt;sub&gt;t&lt;/sub&gt;&lt;/span&gt;" style="text;html=1;align=center;verticalAlign=middle;whiteSpace=wrap;rounded=0;" vertex="1" parent="BE5UIOhBAkyQ7ElNRn9m-63">
          <mxGeometry width="60" height="30" as="geometry" />
        </mxCell>
        <mxCell id="BE5UIOhBAkyQ7ElNRn9m-62" value="&lt;b&gt;h&lt;/b&gt;&lt;span style=&quot;font-size: 10px;&quot;&gt;&lt;sub&gt;t-1&lt;/sub&gt;&lt;/span&gt;" style="text;html=1;align=center;verticalAlign=middle;whiteSpace=wrap;rounded=0;" vertex="1" parent="BE5UIOhBAkyQ7ElNRn9m-63">
          <mxGeometry x="80" width="60" height="30" as="geometry" />
        </mxCell>
        <mxCell id="BE5UIOhBAkyQ7ElNRn9m-64" value="" style="group" vertex="1" connectable="0" parent="1">
          <mxGeometry x="470" y="380" width="140" height="30" as="geometry" />
        </mxCell>
        <mxCell id="BE5UIOhBAkyQ7ElNRn9m-65" value="&lt;b&gt;x&lt;/b&gt;&lt;span style=&quot;font-size: 10px;&quot;&gt;&lt;sub&gt;t&lt;/sub&gt;&lt;/span&gt;" style="text;html=1;align=center;verticalAlign=middle;whiteSpace=wrap;rounded=0;" vertex="1" parent="BE5UIOhBAkyQ7ElNRn9m-64">
          <mxGeometry width="60" height="30" as="geometry" />
        </mxCell>
        <mxCell id="BE5UIOhBAkyQ7ElNRn9m-66" value="&lt;b&gt;h&lt;/b&gt;&lt;span style=&quot;font-size: 10px;&quot;&gt;&lt;sub&gt;t-1&lt;/sub&gt;&lt;/span&gt;" style="text;html=1;align=center;verticalAlign=middle;whiteSpace=wrap;rounded=0;" vertex="1" parent="BE5UIOhBAkyQ7ElNRn9m-64">
          <mxGeometry x="80" width="60" height="30" as="geometry" />
        </mxCell>
        <mxCell id="BE5UIOhBAkyQ7ElNRn9m-67" value="" style="group" vertex="1" connectable="0" parent="1">
          <mxGeometry x="220" y="10" width="140" height="30" as="geometry" />
        </mxCell>
        <mxCell id="BE5UIOhBAkyQ7ElNRn9m-68" value="&lt;b&gt;x&lt;/b&gt;&lt;span style=&quot;font-size: 10px;&quot;&gt;&lt;sub&gt;t&lt;/sub&gt;&lt;/span&gt;" style="text;html=1;align=center;verticalAlign=middle;whiteSpace=wrap;rounded=0;" vertex="1" parent="BE5UIOhBAkyQ7ElNRn9m-67">
          <mxGeometry width="60" height="30" as="geometry" />
        </mxCell>
        <mxCell id="BE5UIOhBAkyQ7ElNRn9m-69" value="&lt;b&gt;h&lt;/b&gt;&lt;span style=&quot;font-size: 10px;&quot;&gt;&lt;sub&gt;t-1&lt;/sub&gt;&lt;/span&gt;" style="text;html=1;align=center;verticalAlign=middle;whiteSpace=wrap;rounded=0;" vertex="1" parent="BE5UIOhBAkyQ7ElNRn9m-67">
          <mxGeometry x="80" width="60" height="30" as="geometry" />
        </mxCell>
        <mxCell id="BE5UIOhBAkyQ7ElNRn9m-71" value="&lt;b&gt;x&lt;/b&gt;&lt;span style=&quot;font-size: 10px;&quot;&gt;&lt;sub&gt;t&lt;/sub&gt;&lt;/span&gt;" style="text;html=1;align=center;verticalAlign=middle;whiteSpace=wrap;rounded=0;" vertex="1" parent="1">
          <mxGeometry x="80" y="210" width="60" height="30" as="geometry" />
        </mxCell>
        <mxCell id="BE5UIOhBAkyQ7ElNRn9m-72" value="&lt;b&gt;h&lt;/b&gt;&lt;span style=&quot;font-size: 10px;&quot;&gt;&lt;sub&gt;t-1&lt;/sub&gt;&lt;/span&gt;" style="text;html=1;align=center;verticalAlign=middle;whiteSpace=wrap;rounded=0;" vertex="1" parent="1">
          <mxGeometry x="80" y="280" width="60" height="30" as="geometry" />
        </mxCell>
        <mxCell id="BE5UIOhBAkyQ7ElNRn9m-73" value="&lt;b&gt;h&lt;/b&gt;&lt;sub&gt;t&lt;/sub&gt;" style="endArrow=classic;html=1;rounded=0;" edge="1" parent="1">
          <mxGeometry x="0.0478" y="10" width="50" height="50" relative="1" as="geometry">
            <mxPoint x="540" y="260" as="sourcePoint" />
            <mxPoint x="720" y="260" as="targetPoint" />
            <mxPoint as="offset" />
          </mxGeometry>
        </mxCell>
        <mxCell id="BE5UIOhBAkyQ7ElNRn9m-75" value="" style="ellipse;whiteSpace=wrap;html=1;aspect=fixed;" vertex="1" parent="1">
          <mxGeometry x="200" y="420" width="20" height="20" as="geometry" />
        </mxCell>
        <mxCell id="BE5UIOhBAkyQ7ElNRn9m-76" value="" style="shape=cross;whiteSpace=wrap;html=1;size=0;" vertex="1" parent="1">
          <mxGeometry x="205" y="425" width="10" height="10" as="geometry" />
        </mxCell>
        <mxCell id="BE5UIOhBAkyQ7ElNRn9m-77" value="" style="group" vertex="1" connectable="0" parent="1">
          <mxGeometry x="200" y="450" width="20" height="20" as="geometry" />
        </mxCell>
        <mxCell id="BE5UIOhBAkyQ7ElNRn9m-78" value="" style="ellipse;whiteSpace=wrap;html=1;aspect=fixed;" vertex="1" parent="BE5UIOhBAkyQ7ElNRn9m-77">
          <mxGeometry width="20" height="20" as="geometry" />
        </mxCell>
        <mxCell id="BE5UIOhBAkyQ7ElNRn9m-79" value="" style="ellipse;whiteSpace=wrap;html=1;aspect=fixed;fillColor=#000000;" vertex="1" parent="BE5UIOhBAkyQ7ElNRn9m-77">
          <mxGeometry x="8" y="8" width="4" height="4" as="geometry" />
        </mxCell>
        <mxCell id="BE5UIOhBAkyQ7ElNRn9m-80" value="addition" style="text;html=1;align=center;verticalAlign=middle;whiteSpace=wrap;rounded=0;" vertex="1" parent="1">
          <mxGeometry x="230" y="415" width="50" height="30" as="geometry" />
        </mxCell>
        <mxCell id="BE5UIOhBAkyQ7ElNRn9m-81" value="elementwise multiplication" style="text;html=1;align=center;verticalAlign=middle;whiteSpace=wrap;rounded=0;" vertex="1" parent="1">
          <mxGeometry x="230" y="445" width="150" height="30" as="geometry" />
        </mxCell>
      </root>
    </mxGraphModel>
  </diagram>
</mxfile>
